<svg xmlns="http://www.w3.org/2000/svg" xmlns:xlink="http://www.w3.org/1999/xlink" width="150" zoomAndPan="magnify" viewBox="0 0 112.5 112.499997" height="150" preserveAspectRatio="xMidYMid meet" version="1.0"><defs><clipPath id="d8b9f7d031"><path d="M 40.621094 35.960938 L 49.578125 35.960938 L 49.578125 50.476562 L 40.621094 50.476562 Z M 40.621094 35.960938 " clip-rule="nonzero"/></clipPath><clipPath id="62c691e734"><path d="M 47 35.960938 L 53.761719 35.960938 L 53.761719 50.476562 L 47 50.476562 Z M 47 35.960938 " clip-rule="nonzero"/></clipPath><clipPath id="0c4b87468f"><path d="M 53 35.960938 L 59 35.960938 L 59 50.476562 L 53 50.476562 Z M 53 35.960938 " clip-rule="nonzero"/></clipPath><clipPath id="a1916e123f"><path d="M 58.242188 35.960938 L 65 35.960938 L 65 50.476562 L 58.242188 50.476562 Z M 58.242188 35.960938 " clip-rule="nonzero"/></clipPath><clipPath id="8fd2b24650"><path d="M 62.421875 35.960938 L 71.382812 35.960938 L 71.382812 50.476562 L 62.421875 50.476562 Z M 62.421875 35.960938 " clip-rule="nonzero"/></clipPath><clipPath id="11a6d3cde8"><path d="M 43.007812 51.074219 L 68.992188 51.074219 L 68.992188 65.304688 L 43.007812 65.304688 Z M 43.007812 51.074219 " clip-rule="nonzero"/></clipPath></defs><path fill="#f00480" d="M 60.9375 52.761719 L 64.394531 53.691406 C 64.484375 53.714844 64.558594 53.761719 64.617188 53.835938 C 64.675781 53.910156 64.707031 53.992188 64.710938 54.085938 C 64.710938 54.179688 64.6875 54.265625 64.632812 54.339844 C 64.578125 54.417969 64.507812 54.46875 64.417969 54.5 L 62.71875 55.0625 L 62.15625 56.761719 C 62.125 56.851562 62.074219 56.921875 61.996094 56.976562 C 61.921875 57.03125 61.835938 57.054688 61.742188 57.050781 C 61.648438 57.050781 61.566406 57.019531 61.492188 56.960938 C 61.417969 56.902344 61.371094 56.828125 61.347656 56.738281 L 60.417969 53.28125 C 60.410156 53.246094 60.40625 53.210938 60.40625 53.171875 C 60.40625 53.132812 60.410156 53.097656 60.417969 53.0625 C 60.429688 53.027344 60.441406 52.992188 60.460938 52.960938 C 60.480469 52.929688 60.503906 52.898438 60.527344 52.875 C 60.554688 52.847656 60.582031 52.824219 60.617188 52.804688 C 60.648438 52.785156 60.683594 52.773438 60.71875 52.761719 C 60.753906 52.753906 60.789062 52.75 60.828125 52.75 C 60.863281 52.75 60.902344 52.753906 60.9375 52.761719 Z M 60.9375 52.761719 " fill-opacity="1" fill-rule="nonzero"/><g clip-path="url(#d8b9f7d031)"><path fill="#010768" d="M 49.445312 35.976562 L 47.921875 41.59375 L 47.566406 42.90625 L 46.109375 48.28125 C 45.882812 49.117188 45.238281 49.769531 44.414062 50.0625 C 44.09375 50.183594 43.761719 50.238281 43.417969 50.238281 C 43.3125 50.242188 43.207031 50.234375 43.101562 50.21875 C 41.296875 50.039062 40.132812 48.265625 40.847656 46.648438 L 45.582031 35.976562 Z M 49.445312 35.976562 " fill-opacity="1" fill-rule="nonzero"/></g><g clip-path="url(#62c691e734)"><path fill="#f00480" d="M 53.558594 35.976562 L 52.121094 48.148438 C 52.085938 48.441406 51.996094 48.714844 51.855469 48.972656 C 51.714844 49.230469 51.527344 49.453125 51.300781 49.640625 C 51.066406 49.835938 50.800781 49.984375 50.515625 50.085938 C 50.226562 50.191406 49.929688 50.242188 49.621094 50.238281 C 47.984375 50.238281 46.785156 48.796875 47.183594 47.316406 L 50.257812 35.976562 Z M 53.558594 35.976562 " fill-opacity="1" fill-rule="nonzero"/></g><g clip-path="url(#0c4b87468f)"><path fill="#010768" d="M 56 50.238281 C 54.21875 50.238281 52.835938 48.796875 53.03125 47.144531 L 54.347656 35.976562 L 57.65625 35.976562 L 58.972656 47.144531 C 59.164062 48.796875 57.777344 50.238281 56 50.238281 Z M 56 50.238281 " fill-opacity="1" fill-rule="nonzero"/></g><g clip-path="url(#a1916e123f)"><path fill="#f00480" d="M 62.375 50.238281 C 61.09375 50.238281 60.015625 49.339844 59.875 48.148438 L 58.441406 35.976562 L 61.746094 35.976562 L 64.8125 47.316406 C 65.214844 48.796875 64.011719 50.238281 62.375 50.238281 Z M 62.375 50.238281 " fill-opacity="1" fill-rule="nonzero"/></g><g clip-path="url(#8fd2b24650)"><path fill="#010768" d="M 68.898438 50.21875 C 68.796875 50.234375 68.691406 50.242188 68.585938 50.238281 C 68.242188 50.238281 67.910156 50.183594 67.585938 50.0625 C 66.765625 49.769531 66.113281 49.117188 65.890625 48.28125 L 64.429688 42.90625 L 64.074219 41.59375 L 62.558594 35.976562 L 66.421875 35.976562 L 71.152344 46.648438 C 71.871094 48.265625 70.707031 50.039062 68.898438 50.21875 Z M 68.898438 50.21875 " fill-opacity="1" fill-rule="nonzero"/></g><g clip-path="url(#11a6d3cde8)"><path fill="#010768" d="M 67.585938 51.261719 L 67.585938 58.921875 L 44.414062 58.921875 L 44.414062 51.261719 L 43.101562 51.261719 L 43.101562 61.589844 C 43.101562 61.828125 43.125 62.058594 43.171875 62.289062 C 43.21875 62.523438 43.285156 62.746094 43.375 62.964844 C 43.464844 63.183594 43.578125 63.386719 43.707031 63.585938 C 43.839844 63.78125 43.988281 63.960938 44.15625 64.128906 C 44.320312 64.296875 44.503906 64.445312 44.699219 64.574219 C 44.894531 64.707031 45.101562 64.816406 45.320312 64.90625 C 45.535156 64.996094 45.761719 65.066406 45.992188 65.109375 C 46.222656 65.15625 46.457031 65.179688 46.691406 65.179688 L 65.308594 65.179688 C 65.546875 65.179688 65.777344 65.15625 66.011719 65.109375 C 66.242188 65.066406 66.464844 64.996094 66.683594 64.90625 C 66.902344 64.816406 67.109375 64.707031 67.304688 64.574219 C 67.5 64.445312 67.683594 64.296875 67.847656 64.128906 C 68.015625 63.960938 68.164062 63.78125 68.292969 63.585938 C 68.425781 63.386719 68.535156 63.183594 68.628906 62.964844 C 68.71875 62.746094 68.785156 62.523438 68.832031 62.289062 C 68.875 62.058594 68.898438 61.828125 68.898438 61.589844 L 68.898438 51.261719 Z M 56.003906 63.589844 C 55.902344 63.589844 55.800781 63.578125 55.703125 63.5625 C 55.601562 63.542969 55.507812 63.511719 55.414062 63.472656 C 55.320312 63.433594 55.230469 63.386719 55.148438 63.332031 C 55.0625 63.277344 54.984375 63.210938 54.914062 63.140625 C 54.84375 63.066406 54.777344 62.992188 54.722656 62.90625 C 54.667969 62.824219 54.617188 62.734375 54.578125 62.640625 C 54.542969 62.546875 54.511719 62.449219 54.492188 62.351562 C 54.472656 62.253906 54.464844 62.152344 54.464844 62.050781 C 54.460938 61.953125 54.472656 61.851562 54.492188 61.75 C 54.511719 61.652344 54.542969 61.554688 54.578125 61.460938 C 54.617188 61.367188 54.667969 61.28125 54.722656 61.195312 C 54.777344 61.113281 54.84375 61.035156 54.914062 60.964844 C 54.984375 60.890625 55.0625 60.828125 55.148438 60.773438 C 55.230469 60.714844 55.320312 60.667969 55.414062 60.628906 C 55.507812 60.589844 55.601562 60.5625 55.703125 60.542969 C 55.800781 60.523438 55.902344 60.511719 56 60.511719 C 56.101562 60.511719 56.203125 60.523438 56.300781 60.542969 C 56.402344 60.5625 56.496094 60.589844 56.589844 60.628906 C 56.683594 60.667969 56.773438 60.714844 56.855469 60.773438 C 56.941406 60.828125 57.019531 60.890625 57.089844 60.964844 C 57.160156 61.035156 57.226562 61.113281 57.28125 61.195312 C 57.335938 61.28125 57.386719 61.371094 57.421875 61.464844 C 57.460938 61.558594 57.492188 61.652344 57.511719 61.75 C 57.53125 61.851562 57.539062 61.953125 57.539062 62.050781 C 57.539062 62.152344 57.53125 62.253906 57.511719 62.351562 C 57.492188 62.449219 57.460938 62.546875 57.421875 62.640625 C 57.386719 62.734375 57.335938 62.824219 57.28125 62.90625 C 57.226562 62.992188 57.160156 63.066406 57.089844 63.140625 C 57.019531 63.210938 56.941406 63.273438 56.855469 63.332031 C 56.773438 63.386719 56.683594 63.433594 56.589844 63.472656 C 56.496094 63.511719 56.402344 63.542969 56.300781 63.558594 C 56.203125 63.578125 56.101562 63.589844 56.003906 63.589844 Z M 56.003906 63.589844 " fill-opacity="1" fill-rule="nonzero"/></g><path fill="#f00480" d="M 41.421875 70.5625 L 39.84375 70.5625 L 39.84375 76.945312 L 37.519531 76.945312 L 37.519531 70.5625 L 35.847656 70.5625 L 35.988281 68.511719 L 41.554688 68.511719 Z M 41.421875 70.5625 " fill-opacity="1" fill-rule="nonzero"/><path fill="#f00480" d="M 42.59375 69.394531 C 43.109375 68.71875 43.964844 68.378906 45.148438 68.378906 C 46.335938 68.378906 47.1875 68.710938 47.695312 69.382812 C 48.210938 70.050781 48.46875 71.140625 48.46875 72.648438 C 48.46875 74.152344 48.203125 75.269531 47.679688 75.992188 C 47.152344 76.71875 46.300781 77.082031 45.125 77.082031 C 43.949219 77.082031 43.101562 76.722656 42.585938 76.007812 C 42.070312 75.292969 41.8125 74.183594 41.8125 72.675781 C 41.8125 71.167969 42.070312 70.074219 42.59375 69.394531 Z M 46.128906 72.652344 C 46.128906 71.820312 46.0625 71.261719 45.933594 70.96875 C 45.800781 70.671875 45.535156 70.523438 45.128906 70.523438 C 44.730469 70.523438 44.46875 70.671875 44.351562 70.96875 C 44.230469 71.261719 44.175781 71.820312 44.175781 72.644531 L 44.175781 72.964844 C 44.175781 73.847656 44.238281 74.425781 44.371094 74.699219 C 44.503906 74.976562 44.769531 75.113281 45.171875 75.113281 C 45.578125 75.113281 45.835938 74.980469 45.953125 74.71875 C 46.070312 74.457031 46.128906 73.914062 46.128906 73.089844 Z M 46.128906 72.652344 " fill-opacity="1" fill-rule="nonzero"/><path fill="#010068" d="M 55.664062 72.546875 C 55.664062 75.480469 54.507812 76.945312 52.191406 76.945312 L 49.390625 76.945312 L 49.390625 68.511719 L 52.242188 68.511719 C 53.484375 68.511719 54.363281 68.859375 54.882812 69.554688 C 55.402344 70.246094 55.664062 71.242188 55.664062 72.546875 Z M 52.148438 74.992188 C 52.628906 74.992188 52.9375 74.820312 53.078125 74.480469 C 53.21875 74.144531 53.289062 73.574219 53.289062 72.773438 C 53.289062 71.972656 53.214844 71.402344 53.066406 71.066406 C 52.914062 70.730469 52.59375 70.5625 52.109375 70.5625 L 51.703125 70.5625 L 51.703125 74.992188 Z M 52.148438 74.992188 " fill-opacity="1" fill-rule="nonzero"/><path fill="#010068" d="M 57.042969 69.394531 C 57.5625 68.71875 58.414062 68.378906 59.601562 68.378906 C 60.789062 68.378906 61.636719 68.710938 62.148438 69.382812 C 62.660156 70.050781 62.917969 71.140625 62.917969 72.648438 C 62.917969 74.152344 62.652344 75.269531 62.128906 75.992188 C 61.601562 76.71875 60.753906 77.082031 59.578125 77.082031 C 58.402344 77.082031 57.554688 76.722656 57.039062 76.007812 C 56.519531 75.292969 56.261719 74.183594 56.261719 72.675781 C 56.261719 71.167969 56.523438 70.074219 57.042969 69.394531 Z M 60.578125 72.652344 C 60.578125 71.820312 60.515625 71.261719 60.382812 70.96875 C 60.253906 70.671875 59.984375 70.523438 59.582031 70.523438 C 59.179688 70.523438 58.917969 70.671875 58.800781 70.96875 C 58.683594 71.261719 58.625 71.820312 58.625 72.644531 L 58.625 72.964844 C 58.625 73.847656 58.691406 74.425781 58.820312 74.699219 C 58.953125 74.976562 59.222656 75.113281 59.625 75.113281 C 60.027344 75.113281 60.285156 74.980469 60.402344 74.71875 C 60.519531 74.457031 60.578125 73.914062 60.578125 73.089844 Z M 60.578125 72.652344 " fill-opacity="1" fill-rule="nonzero"/><path fill="#010068" d="M 69.988281 76.945312 L 67.761719 76.945312 L 66.011719 73.019531 L 65.902344 73.019531 L 65.902344 76.945312 L 63.839844 76.945312 L 63.839844 68.511719 L 66.132812 68.511719 L 67.804688 72.558594 L 67.914062 72.558594 L 67.914062 68.511719 L 69.988281 68.511719 Z M 69.988281 76.945312 " fill-opacity="1" fill-rule="nonzero"/><path fill="#010068" d="M 75.75 76.945312 L 71.183594 76.945312 L 71.183594 68.511719 L 75.882812 68.511719 L 75.75 70.589844 L 73.507812 70.589844 L 73.507812 71.855469 L 75.449219 71.855469 L 75.449219 73.644531 L 73.507812 73.644531 L 73.507812 75.046875 L 75.882812 75.046875 Z M 75.75 76.945312 " fill-opacity="1" fill-rule="nonzero"/></svg>